<svg class="main-svg" xmlns="http://www.w3.org/2000/svg" xmlns:xlink="http://www.w3.org/1999/xlink" width="1280" height="800" style="" viewBox="0 0 1280 800"><rect x="0" y="0" width="1280" height="800" style="fill: rgb(255, 255, 255); fill-opacity: 1;"/><defs id="defs-d605bb"><g class="clips"><clipPath id="clipd605bbxyplot" class="plotclip"><rect width="995" height="620"/></clipPath><clipPath class="axesclip" id="clipd605bbx"><rect x="80" y="0" width="995" height="800"/></clipPath><clipPath class="axesclip" id="clipd605bby"><rect x="0" y="100" width="1280" height="620"/></clipPath><clipPath class="axesclip" id="clipd605bbxy"><rect x="80" y="100" width="995" height="620"/></clipPath></g><g class="gradients"/></defs><g class="bglayer"><rect class="bg" x="80" y="100" width="995" height="620" style="fill: rgb(255, 255, 255); fill-opacity: 1; stroke-width: 0;"/></g><g class="layer-below"><g class="imagelayer"/><g class="shapelayer"/></g><g class="cartesianlayer"><g class="subplot xy"><g class="layer-subplot"><g class="shapelayer"/><g class="imagelayer"/></g><g class="gridlayer"><g class="x"><path class="xgrid crisp" d="M0,100v620" transform="translate(195.92000000000002,0)" style="stroke: rgb(238, 238, 238); stroke-opacity: 1; stroke-width: 1px;"/><path class="xgrid crisp" d="M0,100v620" transform="translate(331.16999999999996,0)" style="stroke: rgb(238, 238, 238); stroke-opacity: 1; stroke-width: 1px;"/><path class="xgrid crisp" d="M0,100v620" transform="translate(466.41,0)" style="stroke: rgb(238, 238, 238); stroke-opacity: 1; stroke-width: 1px;"/><path class="xgrid crisp" d="M0,100v620" transform="translate(601.65,0)" style="stroke: rgb(238, 238, 238); stroke-opacity: 1; stroke-width: 1px;"/><path class="xgrid crisp" d="M0,100v620" transform="translate(736.89,0)" style="stroke: rgb(238, 238, 238); stroke-opacity: 1; stroke-width: 1px;"/><path class="xgrid crisp" d="M0,100v620" transform="translate(872.14,0)" style="stroke: rgb(238, 238, 238); stroke-opacity: 1; stroke-width: 1px;"/><path class="xgrid crisp" d="M0,100v620" transform="translate(1007.38,0)" style="stroke: rgb(238, 238, 238); stroke-opacity: 1; stroke-width: 1px;"/></g><g class="y"><path class="ygrid crisp" d="M80,0h995" transform="translate(0,596)" style="stroke: rgb(238, 238, 238); stroke-opacity: 1; stroke-width: 1px;"/><path class="ygrid crisp" d="M80,0h995" transform="translate(0,503)" style="stroke: rgb(238, 238, 238); stroke-opacity: 1; stroke-width: 1px;"/><path class="ygrid crisp" d="M80,0h995" transform="translate(0,410)" style="stroke: rgb(238, 238, 238); stroke-opacity: 1; stroke-width: 1px;"/><path class="ygrid crisp" d="M80,0h995" transform="translate(0,317)" style="stroke: rgb(238, 238, 238); stroke-opacity: 1; stroke-width: 1px;"/><path class="ygrid crisp" d="M80,0h995" transform="translate(0,224)" style="stroke: rgb(238, 238, 238); stroke-opacity: 1; stroke-width: 1px;"/><path class="ygrid crisp" d="M80,0h995" transform="translate(0,131)" style="stroke: rgb(238, 238, 238); stroke-opacity: 1; stroke-width: 1px;"/></g></g><g class="zerolinelayer"><path class="yzl zl crisp" d="M80,0h995" transform="translate(0,689)" style="stroke: rgb(68, 68, 68); stroke-opacity: 1; stroke-width: 1px;"/></g><path class="xlines-below"/><path class="ylines-below"/><g class="overlines-below"/><g class="xaxislayer-below"/><g class="yaxislayer-below"/><g class="overaxes-below"/><g class="plot" transform="translate(80, 100)" clip-path="url(#clipd605bbxyplot)"><g class="scatterlayer mlayer"><g class="trace scatter trace75ae89" style="stroke-miterlimit: 2; opacity: 1;"><path class="js-line" d="M0,570.4L28.98,570.4L38.64,551.8L48.3,551.8L57.96,514.6L67.62,551.8L77.28,570.4L96.6,570.4L106.26,477.4L115.92,570.4L125.58,551.8L135.24,421.6L144.9,328.6L154.56,421.6L164.22,421.6L173.88,365.8L183.54,514.6L193.2,31L202.86,347.2L212.52,533.2L222.18,421.6L241.5,533.2L251.17,347.2L260.83,496L270.49,384.4L280.15,291.4L289.81,458.8L299.47,365.8L309.13,384.4L318.79,533.2L328.45,458.8L338.11,440.2L347.77,86.8L357.43,272.8L367.09,217L376.75,384.4L386.41,291.4L396.07,179.8L405.73,347.2L415.39,124L425.05,477.4L463.69,514.6L483.01,514.6L492.67,570.4L502.33,551.8L511.99,421.6L521.65,570.4L540.97,403L550.63,458.8L560.29,496L569.95,421.6L579.61,477.4L589.27,403L598.93,533.2L608.59,496L618.25,551.8L627.91,551.8L647.23,384.4L656.89,458.8L666.55,533.2L676.21,142.6L685.87,365.8L695.53,217L705.19,421.6L714.85,272.8L734.17,570.4L743.83,477.4L753.5,440.2L772.82,570.4L811.46,570.4L821.12,440.2L850.1,551.8L879.08,551.8L888.74,514.6L898.4,458.8L917.72,384.4L927.38,514.6L937.04,551.8L975.68,551.8L985.34,421.6L995,551.8" style="vector-effect: non-scaling-stroke; fill: none; stroke: rgb(31, 119, 180); stroke-opacity: 1; stroke-width: 2px; opacity: 1;"/><g class="points"/></g><g class="trace scatter trace2a0ef3" style="stroke-miterlimit: 2; opacity: 1;"><path class="js-line" d="M0,589L48.3,589L57.96,570.4L67.62,570.4L77.28,589L144.9,589L154.56,551.8L164.22,533.2L173.88,589L202.86,589L212.52,551.8L222.18,551.8L241.5,570.4L251.17,589L260.83,533.2L270.49,570.4L280.15,551.8L289.81,589L299.47,514.6L309.13,589L318.79,589L328.45,589L338.11,533.2L347.77,589L357.43,570.4L367.09,514.6L376.75,551.8L386.41,589L396.07,589L415.39,589L425.05,570.4L463.69,589L483.01,533.2L492.67,570.4L502.33,589L550.63,589L560.29,570.4L569.95,589L579.61,589L627.91,589L647.23,570.4L656.89,496L666.55,589L676.21,533.2L685.87,403L695.53,514.6L705.19,496L714.85,533.2L734.17,589L821.12,589L840.44,551.8L850.1,589L879.08,589L995,589" style="vector-effect: non-scaling-stroke; fill: none; stroke: rgb(255, 127, 14); stroke-opacity: 1; stroke-width: 2px; opacity: 1;"/><g class="points"/></g></g></g><g class="overplot"/><path class="xlines-above crisp" d="M0,0" style="fill: none;"/><path class="ylines-above crisp" d="M0,0" style="fill: none;"/><g class="overlines-above"/><g class="xaxislayer-above"><g class="xtick"><text text-anchor="middle" x="0" y="733" transform="translate(195.92000000000002,0)" style="font-family: 'Open Sans', verdana, arial, sans-serif; font-size: 12px; fill: rgb(68, 68, 68); fill-opacity: 1; white-space: pre;"><tspan class="line" dy="0em" x="0" y="733">Mar 18</tspan><tspan class="line" dy="1.3em" x="0" y="733">2018</tspan></text></g><g class="xtick"><text text-anchor="middle" x="0" y="733" transform="translate(331.16999999999996,0)" style="font-family: 'Open Sans', verdana, arial, sans-serif; font-size: 12px; fill: rgb(68, 68, 68); fill-opacity: 1; white-space: pre;">Apr 1</text></g><g class="xtick"><text text-anchor="middle" x="0" y="733" transform="translate(466.41,0)" style="font-family: 'Open Sans', verdana, arial, sans-serif; font-size: 12px; fill: rgb(68, 68, 68); fill-opacity: 1; white-space: pre;">Apr 15</text></g><g class="xtick"><text text-anchor="middle" x="0" y="733" transform="translate(601.65,0)" style="font-family: 'Open Sans', verdana, arial, sans-serif; font-size: 12px; fill: rgb(68, 68, 68); fill-opacity: 1; white-space: pre;">Apr 29</text></g><g class="xtick"><text text-anchor="middle" x="0" y="733" transform="translate(736.89,0)" style="font-family: 'Open Sans', verdana, arial, sans-serif; font-size: 12px; fill: rgb(68, 68, 68); fill-opacity: 1; white-space: pre;">May 13</text></g><g class="xtick"><text text-anchor="middle" x="0" y="733" transform="translate(872.14,0)" style="font-family: 'Open Sans', verdana, arial, sans-serif; font-size: 12px; fill: rgb(68, 68, 68); fill-opacity: 1; white-space: pre;">May 27</text></g><g class="xtick"><text text-anchor="middle" x="0" y="733" transform="translate(1007.38,0)" style="font-family: 'Open Sans', verdana, arial, sans-serif; font-size: 12px; fill: rgb(68, 68, 68); fill-opacity: 1; white-space: pre;">Jun 10</text></g></g><g class="yaxislayer-above"><g class="ytick"><text text-anchor="end" x="79" y="4.199999999999999" transform="translate(0,689)" style="font-family: 'Open Sans', verdana, arial, sans-serif; font-size: 12px; fill: rgb(68, 68, 68); fill-opacity: 1; white-space: pre;">0</text></g><g class="ytick"><text text-anchor="end" x="79" y="4.199999999999999" transform="translate(0,596)" style="font-family: 'Open Sans', verdana, arial, sans-serif; font-size: 12px; fill: rgb(68, 68, 68); fill-opacity: 1; white-space: pre;">5</text></g><g class="ytick"><text text-anchor="end" x="79" y="4.199999999999999" transform="translate(0,503)" style="font-family: 'Open Sans', verdana, arial, sans-serif; font-size: 12px; fill: rgb(68, 68, 68); fill-opacity: 1; white-space: pre;">10</text></g><g class="ytick"><text text-anchor="end" x="79" y="4.199999999999999" transform="translate(0,410)" style="font-family: 'Open Sans', verdana, arial, sans-serif; font-size: 12px; fill: rgb(68, 68, 68); fill-opacity: 1; white-space: pre;">15</text></g><g class="ytick"><text text-anchor="end" x="79" y="4.199999999999999" transform="translate(0,317)" style="font-family: 'Open Sans', verdana, arial, sans-serif; font-size: 12px; fill: rgb(68, 68, 68); fill-opacity: 1; white-space: pre;">20</text></g><g class="ytick"><text text-anchor="end" x="79" y="4.199999999999999" transform="translate(0,224)" style="font-family: 'Open Sans', verdana, arial, sans-serif; font-size: 12px; fill: rgb(68, 68, 68); fill-opacity: 1; white-space: pre;">25</text></g><g class="ytick"><text text-anchor="end" x="79" y="4.199999999999999" transform="translate(0,131)" style="font-family: 'Open Sans', verdana, arial, sans-serif; font-size: 12px; fill: rgb(68, 68, 68); fill-opacity: 1; white-space: pre;">30</text></g></g><g class="overaxes-above"/></g></g><g class="polarlayer"/><g class="ternarylayer"/><g class="geolayer"/><g class="pielayer"/><g class="glimages"/><defs id="topdefs-d605bb"><g class="clips"/><clipPath id="legendd605bb"><rect width="173" height="48" x="0" y="0"/></clipPath></defs><g class="layer-above"><g class="imagelayer"/><g class="shapelayer"/></g><g class="infolayer"><g class="legend" pointer-events="all" transform="translate(1094.9, 100)"><rect class="bg" shape-rendering="crispEdges" width="173" height="48" x="0" y="0" style="stroke: rgb(68, 68, 68); stroke-opacity: 1; fill: rgb(255, 255, 255); fill-opacity: 1; stroke-width: 0px;"/><g class="scrollbox" transform="translate(0, 0)" clip-path="url(#legendd605bb)"><g class="groups"><g class="traces" transform="translate(0, 14.5)" style="opacity: 1;"><g class="layers" style="opacity: 1;"><g class="legendfill"/><g class="legendlines"><path class="js-line" d="M5,0h30" style="fill: none; stroke: rgb(31, 119, 180); stroke-opacity: 1; stroke-width: 2px;"/></g><g class="legendsymbols"><g class="legendpoints"/></g></g><text class="legendtext user-select-none" text-anchor="start" x="40" y="4.680000000000001" style="font-family: 'Open Sans', verdana, arial, sans-serif; font-size: 12px; fill: rgb(68, 68, 68); fill-opacity: 1; white-space: pre;">All Commits</text><rect class="legendtoggle" pointer-events="all" x="0" y="-9.5" width="213" height="19" style="cursor: pointer; fill: rgb(0, 0, 0); fill-opacity: 0;"/></g><g class="traces" transform="translate(0, 33.5)" style="opacity: 1;"><g class="layers" style="opacity: 1;"><g class="legendfill"/><g class="legendlines"><path class="js-line" d="M5,0h30" style="fill: none; stroke: rgb(255, 127, 14); stroke-opacity: 1; stroke-width: 2px;"/></g><g class="legendsymbols"><g class="legendpoints"/></g></g><text class="legendtext user-select-none" text-anchor="start" x="40" y="4.680000000000001" style="font-family: 'Open Sans', verdana, arial, sans-serif; font-size: 12px; fill: rgb(68, 68, 68); fill-opacity: 1; white-space: pre;">Signed-Off-By Commits</text><rect class="legendtoggle" pointer-events="all" x="0" y="-9.5" width="213" height="19" style="cursor: pointer; fill: rgb(0, 0, 0); fill-opacity: 0;"/></g></g></g><rect class="scrollbar" rx="20" ry="3" width="0" height="0" x="0" y="0" style="fill: rgb(128, 139, 164); fill-opacity: 1;"/></g><g class="g-gtitle"><text class="gtitle" x="640" y="50" text-anchor="middle" style="font-family: 'Open Sans', verdana, arial, sans-serif; font-size: 17px; fill: rgb(68, 68, 68); opacity: 1; font-weight: normal; white-space: pre;">Pair programming evolution during project - Gerencia_mais</text></g><g class="g-xtitle"><text class="xtitle" x="577.5" y="772" text-anchor="middle" style="font-family: 'Open Sans', verdana, arial, sans-serif; font-size: 14px; fill: rgb(68, 68, 68); opacity: 1; font-weight: normal; white-space: pre;">Date of commit</text></g><g class="g-ytitle"><text class="ytitle" transform="rotate(-90,42,410)" x="42" y="410" text-anchor="middle" style="font-family: 'Open Sans', verdana, arial, sans-serif; font-size: 14px; fill: rgb(68, 68, 68); opacity: 1; font-weight: normal; white-space: pre;">Amount of commits</text></g></g></svg>