<svg class="main-svg" xmlns="http://www.w3.org/2000/svg" xmlns:xlink="http://www.w3.org/1999/xlink" width="1280" height="800" style="" viewBox="0 0 1280 800"><rect x="0" y="0" width="1280" height="800" style="fill: rgb(255, 255, 255); fill-opacity: 1;"/><defs id="defs-eac41f"><g class="clips"><clipPath id="clipeac41fxyplot" class="plotclip"><rect width="995" height="620"/></clipPath><clipPath class="axesclip" id="clipeac41fx"><rect x="80" y="0" width="995" height="800"/></clipPath><clipPath class="axesclip" id="clipeac41fy"><rect x="0" y="100" width="1280" height="620"/></clipPath><clipPath class="axesclip" id="clipeac41fxy"><rect x="80" y="100" width="995" height="620"/></clipPath></g><g class="gradients"/></defs><g class="bglayer"><rect class="bg" x="80" y="100" width="995" height="620" style="fill: rgb(255, 255, 255); fill-opacity: 1; stroke-width: 0;"/></g><g class="layer-below"><g class="imagelayer"/><g class="shapelayer"/></g><g class="cartesianlayer"><g class="subplot xy"><g class="layer-subplot"><g class="shapelayer"/><g class="imagelayer"/></g><g class="gridlayer"><g class="x"><path class="xgrid crisp" d="M0,100v620" transform="translate(193.70999999999998,0)" style="stroke: rgb(238, 238, 238); stroke-opacity: 1; stroke-width: 1px;"/><path class="xgrid crisp" d="M0,100v620" transform="translate(326.38,0)" style="stroke: rgb(238, 238, 238); stroke-opacity: 1; stroke-width: 1px;"/><path class="xgrid crisp" d="M0,100v620" transform="translate(459.05,0)" style="stroke: rgb(238, 238, 238); stroke-opacity: 1; stroke-width: 1px;"/><path class="xgrid crisp" d="M0,100v620" transform="translate(591.71,0)" style="stroke: rgb(238, 238, 238); stroke-opacity: 1; stroke-width: 1px;"/><path class="xgrid crisp" d="M0,100v620" transform="translate(724.38,0)" style="stroke: rgb(238, 238, 238); stroke-opacity: 1; stroke-width: 1px;"/><path class="xgrid crisp" d="M0,100v620" transform="translate(857.05,0)" style="stroke: rgb(238, 238, 238); stroke-opacity: 1; stroke-width: 1px;"/><path class="xgrid crisp" d="M0,100v620" transform="translate(989.71,0)" style="stroke: rgb(238, 238, 238); stroke-opacity: 1; stroke-width: 1px;"/></g><g class="y"><path class="ygrid crisp" d="M80,0h995" transform="translate(0,604.45)" style="stroke: rgb(238, 238, 238); stroke-opacity: 1; stroke-width: 1px;"/><path class="ygrid crisp" d="M80,0h995" transform="translate(0,519.9100000000001)" style="stroke: rgb(238, 238, 238); stroke-opacity: 1; stroke-width: 1px;"/><path class="ygrid crisp" d="M80,0h995" transform="translate(0,435.36)" style="stroke: rgb(238, 238, 238); stroke-opacity: 1; stroke-width: 1px;"/><path class="ygrid crisp" d="M80,0h995" transform="translate(0,350.82)" style="stroke: rgb(238, 238, 238); stroke-opacity: 1; stroke-width: 1px;"/><path class="ygrid crisp" d="M80,0h995" transform="translate(0,266.27)" style="stroke: rgb(238, 238, 238); stroke-opacity: 1; stroke-width: 1px;"/><path class="ygrid crisp" d="M80,0h995" transform="translate(0,181.73000000000002)" style="stroke: rgb(238, 238, 238); stroke-opacity: 1; stroke-width: 1px;"/></g></g><g class="zerolinelayer"><path class="yzl zl crisp" d="M80,0h995" transform="translate(0,689)" style="stroke: rgb(68, 68, 68); stroke-opacity: 1; stroke-width: 1px;"/></g><path class="xlines-below"/><path class="ylines-below"/><g class="overlines-below"/><g class="xaxislayer-below"/><g class="yaxislayer-below"/><g class="overaxes-below"/><g class="plot" transform="translate(80, 100)" clip-path="url(#clipeac41fxyplot)"><g class="scatterlayer mlayer"><g class="trace scatter traceb3c172" style="stroke-miterlimit: 2; opacity: 1;"><path class="js-line" d="M0,487.55L9.48,555.18L18.95,487.55L28.43,470.64L56.86,572.09L75.81,419.91L85.29,538.27L113.71,572.09L123.19,487.55L132.67,555.18L151.62,386.09L161.1,538.27L189.52,419.91L199,419.91L208.48,521.36L217.95,436.82L227.43,538.27L236.9,436.82L246.38,487.55L255.86,200.09L265.33,369.18L274.81,335.36L284.29,352.27L293.76,335.36L303.24,419.91L312.71,538.27L322.19,538.27L331.67,403L341.14,301.55L350.62,318.45L360.1,487.55L369.57,419.91L379.05,301.55L388.52,470.64L398,166.27L407.48,318.45L416.95,419.91L464.33,555.18L473.81,470.64L483.29,538.27L502.24,555.18L511.71,555.18L521.19,470.64L530.67,504.45L540.14,453.73L549.62,555.18L559.1,487.55L568.57,470.64L578.05,301.55L587.52,386.09L597,436.82L606.48,504.45L615.95,504.45L625.43,403L634.9,386.09L644.38,572.09L653.86,470.64L663.33,352.27L672.81,487.55L682.29,521.36L691.76,436.82L701.24,470.64L710.71,301.55L720.19,538.27L739.14,419.91L748.62,31L758.1,200.09L767.57,470.64L777.05,419.91L786.52,335.36L796,403L805.48,386.09L814.95,487.55L824.43,335.36L833.9,318.45L843.38,284.64L852.86,284.64L862.33,352.27L871.81,386.09L881.29,403L890.76,436.82L900.24,183.18L909.71,538.27L928.67,64.82L938.14,149.36L947.62,335.36L957.1,267.73L966.57,521.36L976.05,335.36L985.52,403L995,555.18" style="vector-effect: non-scaling-stroke; fill: none; stroke: rgb(31, 119, 180); stroke-opacity: 1; stroke-width: 2px; opacity: 1;"/><g class="points"/></g><g class="trace scatter trace9feb10" style="stroke-miterlimit: 2; opacity: 1;"><path class="js-line" d="M0,589L9.48,589L18.95,555.18L28.43,589L56.86,589L75.81,555.18L85.29,589L113.71,572.09L123.19,538.27L132.67,589L151.62,386.09L161.1,538.27L189.52,521.36L199,572.09L208.48,589L227.43,589L236.9,572.09L246.38,589L255.86,436.82L265.33,504.45L274.81,470.64L284.29,538.27L293.76,487.55L303.24,555.18L312.71,572.09L322.19,589L331.67,572.09L341.14,521.36L350.62,589L369.57,555.18L379.05,572.09L388.52,538.27L398,538.27L407.48,589L416.95,572.09L464.33,589L473.81,504.45L483.29,572.09L502.24,589L521.19,555.18L530.67,589L540.14,521.36L549.62,572.09L559.1,504.45L568.57,589L587.52,487.55L597,538.27L606.48,572.09L615.95,589L644.38,589L653.86,555.18L663.33,589L672.81,538.27L682.29,555.18L691.76,538.27L701.24,572.09L710.71,521.36L720.19,589L739.14,555.18L748.62,572.09L758.1,555.18L767.57,538.27L777.05,555.18L786.52,589L796,572.09L805.48,589L814.95,572.09L824.43,538.27L833.9,555.18L843.38,589L852.86,589L862.33,538.27L871.81,504.45L881.29,572.09L890.76,589L900.24,538.27L909.71,589L928.67,589L938.14,504.45L947.62,538.27L957.1,589L966.57,572.09L976.05,589L995,589" style="vector-effect: non-scaling-stroke; fill: none; stroke: rgb(255, 127, 14); stroke-opacity: 1; stroke-width: 2px; opacity: 1;"/><g class="points"/></g></g></g><g class="overplot"/><path class="xlines-above crisp" d="M0,0" style="fill: none;"/><path class="ylines-above crisp" d="M0,0" style="fill: none;"/><g class="overlines-above"/><g class="xaxislayer-above"><g class="xtick"><text text-anchor="middle" x="0" y="733" transform="translate(193.70999999999998,0)" style="font-family: 'Open Sans', verdana, arial, sans-serif; font-size: 12px; fill: rgb(68, 68, 68); fill-opacity: 1; white-space: pre;"><tspan class="line" dy="0em" x="0" y="733">Mar 18</tspan><tspan class="line" dy="1.3em" x="0" y="733">2018</tspan></text></g><g class="xtick"><text text-anchor="middle" x="0" y="733" transform="translate(326.38,0)" style="font-family: 'Open Sans', verdana, arial, sans-serif; font-size: 12px; fill: rgb(68, 68, 68); fill-opacity: 1; white-space: pre;">Apr 1</text></g><g class="xtick"><text text-anchor="middle" x="0" y="733" transform="translate(459.05,0)" style="font-family: 'Open Sans', verdana, arial, sans-serif; font-size: 12px; fill: rgb(68, 68, 68); fill-opacity: 1; white-space: pre;">Apr 15</text></g><g class="xtick"><text text-anchor="middle" x="0" y="733" transform="translate(591.71,0)" style="font-family: 'Open Sans', verdana, arial, sans-serif; font-size: 12px; fill: rgb(68, 68, 68); fill-opacity: 1; white-space: pre;">Apr 29</text></g><g class="xtick"><text text-anchor="middle" x="0" y="733" transform="translate(724.38,0)" style="font-family: 'Open Sans', verdana, arial, sans-serif; font-size: 12px; fill: rgb(68, 68, 68); fill-opacity: 1; white-space: pre;">May 13</text></g><g class="xtick"><text text-anchor="middle" x="0" y="733" transform="translate(857.05,0)" style="font-family: 'Open Sans', verdana, arial, sans-serif; font-size: 12px; fill: rgb(68, 68, 68); fill-opacity: 1; white-space: pre;">May 27</text></g><g class="xtick"><text text-anchor="middle" x="0" y="733" transform="translate(989.71,0)" style="font-family: 'Open Sans', verdana, arial, sans-serif; font-size: 12px; fill: rgb(68, 68, 68); fill-opacity: 1; white-space: pre;">Jun 10</text></g></g><g class="yaxislayer-above"><g class="ytick"><text text-anchor="end" x="79" y="4.199999999999999" transform="translate(0,689)" style="font-family: 'Open Sans', verdana, arial, sans-serif; font-size: 12px; fill: rgb(68, 68, 68); fill-opacity: 1; white-space: pre;">0</text></g><g class="ytick"><text text-anchor="end" x="79" y="4.199999999999999" transform="translate(0,604.45)" style="font-family: 'Open Sans', verdana, arial, sans-serif; font-size: 12px; fill: rgb(68, 68, 68); fill-opacity: 1; white-space: pre;">5</text></g><g class="ytick"><text text-anchor="end" x="79" y="4.199999999999999" transform="translate(0,519.9100000000001)" style="font-family: 'Open Sans', verdana, arial, sans-serif; font-size: 12px; fill: rgb(68, 68, 68); fill-opacity: 1; white-space: pre;">10</text></g><g class="ytick"><text text-anchor="end" x="79" y="4.199999999999999" transform="translate(0,435.36)" style="font-family: 'Open Sans', verdana, arial, sans-serif; font-size: 12px; fill: rgb(68, 68, 68); fill-opacity: 1; white-space: pre;">15</text></g><g class="ytick"><text text-anchor="end" x="79" y="4.199999999999999" transform="translate(0,350.82)" style="font-family: 'Open Sans', verdana, arial, sans-serif; font-size: 12px; fill: rgb(68, 68, 68); fill-opacity: 1; white-space: pre;">20</text></g><g class="ytick"><text text-anchor="end" x="79" y="4.199999999999999" transform="translate(0,266.27)" style="font-family: 'Open Sans', verdana, arial, sans-serif; font-size: 12px; fill: rgb(68, 68, 68); fill-opacity: 1; white-space: pre;">25</text></g><g class="ytick"><text text-anchor="end" x="79" y="4.199999999999999" transform="translate(0,181.73000000000002)" style="font-family: 'Open Sans', verdana, arial, sans-serif; font-size: 12px; fill: rgb(68, 68, 68); fill-opacity: 1; white-space: pre;">30</text></g></g><g class="overaxes-above"/></g></g><g class="polarlayer"/><g class="ternarylayer"/><g class="geolayer"/><g class="pielayer"/><g class="glimages"/><defs id="topdefs-eac41f"><g class="clips"/><clipPath id="legendeac41f"><rect width="173" height="48" x="0" y="0"/></clipPath></defs><g class="layer-above"><g class="imagelayer"/><g class="shapelayer"/></g><g class="infolayer"><g class="legend" pointer-events="all" transform="translate(1094.9, 100)"><rect class="bg" shape-rendering="crispEdges" width="173" height="48" x="0" y="0" style="stroke: rgb(68, 68, 68); stroke-opacity: 1; fill: rgb(255, 255, 255); fill-opacity: 1; stroke-width: 0px;"/><g class="scrollbox" transform="translate(0, 0)" clip-path="url(#legendeac41f)"><g class="groups"><g class="traces" transform="translate(0, 14.5)" style="opacity: 1;"><g class="layers" style="opacity: 1;"><g class="legendfill"/><g class="legendlines"><path class="js-line" d="M5,0h30" style="fill: none; stroke: rgb(31, 119, 180); stroke-opacity: 1; stroke-width: 2px;"/></g><g class="legendsymbols"><g class="legendpoints"/></g></g><text class="legendtext user-select-none" text-anchor="start" x="40" y="4.680000000000001" style="font-family: 'Open Sans', verdana, arial, sans-serif; font-size: 12px; fill: rgb(68, 68, 68); fill-opacity: 1; white-space: pre;">All Commits</text><rect class="legendtoggle" pointer-events="all" x="0" y="-9.5" width="213" height="19" style="cursor: pointer; fill: rgb(0, 0, 0); fill-opacity: 0;"/></g><g class="traces" transform="translate(0, 33.5)" style="opacity: 1;"><g class="layers" style="opacity: 1;"><g class="legendfill"/><g class="legendlines"><path class="js-line" d="M5,0h30" style="fill: none; stroke: rgb(255, 127, 14); stroke-opacity: 1; stroke-width: 2px;"/></g><g class="legendsymbols"><g class="legendpoints"/></g></g><text class="legendtext user-select-none" text-anchor="start" x="40" y="4.680000000000001" style="font-family: 'Open Sans', verdana, arial, sans-serif; font-size: 12px; fill: rgb(68, 68, 68); fill-opacity: 1; white-space: pre;">Signed-Off-By Commits</text><rect class="legendtoggle" pointer-events="all" x="0" y="-9.5" width="213" height="19" style="cursor: pointer; fill: rgb(0, 0, 0); fill-opacity: 0;"/></g></g></g><rect class="scrollbar" rx="20" ry="3" width="0" height="0" x="0" y="0" style="fill: rgb(128, 139, 164); fill-opacity: 1;"/></g><g class="g-gtitle"><text class="gtitle" x="640" y="50" text-anchor="middle" style="font-family: 'Open Sans', verdana, arial, sans-serif; font-size: 17px; fill: rgb(68, 68, 68); opacity: 1; font-weight: normal; white-space: pre;">Pair programming evolution during project - Reabilitacao-Motora</text></g><g class="g-xtitle"><text class="xtitle" x="577.5" y="772" text-anchor="middle" style="font-family: 'Open Sans', verdana, arial, sans-serif; font-size: 14px; fill: rgb(68, 68, 68); opacity: 1; font-weight: normal; white-space: pre;">Date of commit</text></g><g class="g-ytitle"><text class="ytitle" transform="rotate(-90,42,410)" x="42" y="410" text-anchor="middle" style="font-family: 'Open Sans', verdana, arial, sans-serif; font-size: 14px; fill: rgb(68, 68, 68); opacity: 1; font-weight: normal; white-space: pre;">Amount of commits</text></g></g></svg>