<svg class="main-svg" xmlns="http://www.w3.org/2000/svg" xmlns:xlink="http://www.w3.org/1999/xlink" width="1280" height="800" style="" viewBox="0 0 1280 800"><rect x="0" y="0" width="1280" height="800" style="fill: rgb(255, 255, 255); fill-opacity: 1;"/><defs id="defs-c47ecb"><g class="clips"><clipPath id="clipc47ecbxyplot" class="plotclip"><rect width="995" height="620"/></clipPath><clipPath class="axesclip" id="clipc47ecbx"><rect x="80" y="0" width="995" height="800"/></clipPath><clipPath class="axesclip" id="clipc47ecby"><rect x="0" y="100" width="1280" height="620"/></clipPath><clipPath class="axesclip" id="clipc47ecbxy"><rect x="80" y="100" width="995" height="620"/></clipPath></g><g class="gradients"/></defs><g class="bglayer"><rect class="bg" x="80" y="100" width="995" height="620" style="fill: rgb(255, 255, 255); fill-opacity: 1; stroke-width: 0;"/></g><g class="layer-below"><g class="imagelayer"/><g class="shapelayer"/></g><g class="cartesianlayer"><g class="subplot xy"><g class="layer-subplot"><g class="shapelayer"/><g class="imagelayer"/></g><g class="gridlayer"><g class="x"><path class="xgrid crisp" d="M0,100v620" transform="translate(194.81,0)" style="stroke: rgb(238, 238, 238); stroke-opacity: 1; stroke-width: 1px;"/><path class="xgrid crisp" d="M0,100v620" transform="translate(328.75,0)" style="stroke: rgb(238, 238, 238); stroke-opacity: 1; stroke-width: 1px;"/><path class="xgrid crisp" d="M0,100v620" transform="translate(462.69,0)" style="stroke: rgb(238, 238, 238); stroke-opacity: 1; stroke-width: 1px;"/><path class="xgrid crisp" d="M0,100v620" transform="translate(596.63,0)" style="stroke: rgb(238, 238, 238); stroke-opacity: 1; stroke-width: 1px;"/><path class="xgrid crisp" d="M0,100v620" transform="translate(730.58,0)" style="stroke: rgb(238, 238, 238); stroke-opacity: 1; stroke-width: 1px;"/><path class="xgrid crisp" d="M0,100v620" transform="translate(864.52,0)" style="stroke: rgb(238, 238, 238); stroke-opacity: 1; stroke-width: 1px;"/><path class="xgrid crisp" d="M0,100v620" transform="translate(998.46,0)" style="stroke: rgb(238, 238, 238); stroke-opacity: 1; stroke-width: 1px;"/></g><g class="y"><path class="ygrid crisp" d="M80,0h995" transform="translate(0,562.1800000000001)" style="stroke: rgb(238, 238, 238); stroke-opacity: 1; stroke-width: 1px;"/><path class="ygrid crisp" d="M80,0h995" transform="translate(0,435.36)" style="stroke: rgb(238, 238, 238); stroke-opacity: 1; stroke-width: 1px;"/><path class="ygrid crisp" d="M80,0h995" transform="translate(0,308.55)" style="stroke: rgb(238, 238, 238); stroke-opacity: 1; stroke-width: 1px;"/><path class="ygrid crisp" d="M80,0h995" transform="translate(0,181.73000000000002)" style="stroke: rgb(238, 238, 238); stroke-opacity: 1; stroke-width: 1px;"/></g></g><g class="zerolinelayer"><path class="yzl zl crisp" d="M80,0h995" transform="translate(0,689)" style="stroke: rgb(68, 68, 68); stroke-opacity: 1; stroke-width: 1px;"/></g><path class="xlines-below"/><path class="ylines-below"/><g class="overlines-below"/><g class="xaxislayer-below"/><g class="yaxislayer-below"/><g class="overaxes-below"/><g class="plot" transform="translate(80, 100)" clip-path="url(#clipc47ecbxyplot)"><g class="scatterlayer mlayer"><g class="trace scatter tracef34b38" style="stroke-miterlimit: 2; opacity: 1;"><path class="js-line" d="M0,563.64L9.57,335.36L19.13,360.73L28.7,512.91L47.84,436.82L57.4,360.73L66.97,563.64L76.54,563.64L86.11,462.18L95.67,335.36L105.24,487.55L124.38,208.55L133.94,208.55L143.51,183.18L153.08,132.45L162.64,310L172.21,386.09L191.35,462.18L200.91,132.45L210.48,259.27L220.05,157.82L229.62,183.18L239.18,259.27L258.32,360.73L267.88,386.09L277.45,208.55L287.02,208.55L296.59,259.27L306.15,386.09L315.72,563.64L325.29,436.82L344.42,487.55L353.99,436.82L363.56,259.27L373.13,487.55L392.26,436.82L401.83,208.55L411.39,56.36L420.96,386.09L430.53,563.64L440.1,563.64L459.23,563.64L478.37,512.91L497.5,360.73L507.07,487.55L526.2,563.64L535.77,487.55L545.34,563.64L554.9,487.55L564.47,436.82L574.04,538.27L593.17,310L602.74,563.64L621.88,284.64L631.44,462.18L641.01,31L650.58,487.55L660.14,462.18L669.71,310L679.28,487.55L688.85,284.64L698.41,411.45L707.98,335.36L717.55,563.64L727.12,411.45L736.68,487.55L755.82,310L765.38,411.45L774.95,436.82L784.52,563.64L803.65,487.55L813.22,538.27L822.79,512.91L832.36,563.64L841.92,436.82L861.06,538.27L870.63,259.27L880.19,563.64L908.89,538.27L918.46,538.27L928.03,462.18L937.6,462.18L947.16,563.64L956.73,538.27L966.3,563.64L995,538.27" style="vector-effect: non-scaling-stroke; fill: none; stroke: rgb(31, 119, 180); stroke-opacity: 1; stroke-width: 2px; opacity: 1;"/><g class="points"/></g><g class="trace scatter trace8814a6" style="stroke-miterlimit: 2; opacity: 1;"><path class="js-line" d="M0,589L9.57,538.27L19.13,563.64L28.7,589L47.84,589L105.24,589L124.38,563.64L133.94,589L143.51,512.91L153.08,538.27L162.64,538.27L172.21,589L191.35,563.64L200.91,487.55L210.48,563.64L220.05,512.91L229.62,589L258.32,589L267.88,563.64L277.45,563.64L287.02,538.27L306.15,589L315.72,589L325.29,487.55L334.86,563.64L353.99,563.64L363.56,538.27L382.69,589L392.26,589L411.39,538.27L420.96,563.64L430.53,589L440.1,589L459.23,589L478.37,563.64L497.5,589L507.07,589L545.34,589L554.9,563.64L564.47,512.91L574.04,589L593.17,487.55L602.74,563.64L621.88,335.36L631.44,538.27L641.01,487.55L650.58,512.91L660.14,487.55L669.71,487.55L679.28,538.27L688.85,487.55L698.41,436.82L707.98,487.55L717.55,589L727.12,512.91L736.68,538.27L755.82,462.18L765.38,411.45L774.95,589L803.65,589L813.22,563.64L832.36,563.64L841.92,512.91L861.06,589L870.63,436.82L880.19,589L908.89,589L928.03,487.55L937.6,589L947.16,563.64L956.73,589L995,589" style="vector-effect: non-scaling-stroke; fill: none; stroke: rgb(255, 127, 14); stroke-opacity: 1; stroke-width: 2px; opacity: 1;"/><g class="points"/></g></g></g><g class="overplot"/><path class="xlines-above crisp" d="M0,0" style="fill: none;"/><path class="ylines-above crisp" d="M0,0" style="fill: none;"/><g class="overlines-above"/><g class="xaxislayer-above"><g class="xtick"><text text-anchor="middle" x="0" y="733" transform="translate(194.81,0)" style="font-family: 'Open Sans', verdana, arial, sans-serif; font-size: 12px; fill: rgb(68, 68, 68); fill-opacity: 1; white-space: pre;"><tspan class="line" dy="0em" x="0" y="733">Mar 18</tspan><tspan class="line" dy="1.3em" x="0" y="733">2018</tspan></text></g><g class="xtick"><text text-anchor="middle" x="0" y="733" transform="translate(328.75,0)" style="font-family: 'Open Sans', verdana, arial, sans-serif; font-size: 12px; fill: rgb(68, 68, 68); fill-opacity: 1; white-space: pre;">Apr 1</text></g><g class="xtick"><text text-anchor="middle" x="0" y="733" transform="translate(462.69,0)" style="font-family: 'Open Sans', verdana, arial, sans-serif; font-size: 12px; fill: rgb(68, 68, 68); fill-opacity: 1; white-space: pre;">Apr 15</text></g><g class="xtick"><text text-anchor="middle" x="0" y="733" transform="translate(596.63,0)" style="font-family: 'Open Sans', verdana, arial, sans-serif; font-size: 12px; fill: rgb(68, 68, 68); fill-opacity: 1; white-space: pre;">Apr 29</text></g><g class="xtick"><text text-anchor="middle" x="0" y="733" transform="translate(730.58,0)" style="font-family: 'Open Sans', verdana, arial, sans-serif; font-size: 12px; fill: rgb(68, 68, 68); fill-opacity: 1; white-space: pre;">May 13</text></g><g class="xtick"><text text-anchor="middle" x="0" y="733" transform="translate(864.52,0)" style="font-family: 'Open Sans', verdana, arial, sans-serif; font-size: 12px; fill: rgb(68, 68, 68); fill-opacity: 1; white-space: pre;">May 27</text></g><g class="xtick"><text text-anchor="middle" x="0" y="733" transform="translate(998.46,0)" style="font-family: 'Open Sans', verdana, arial, sans-serif; font-size: 12px; fill: rgb(68, 68, 68); fill-opacity: 1; white-space: pre;">Jun 10</text></g></g><g class="yaxislayer-above"><g class="ytick"><text text-anchor="end" x="79" y="4.199999999999999" transform="translate(0,689)" style="font-family: 'Open Sans', verdana, arial, sans-serif; font-size: 12px; fill: rgb(68, 68, 68); fill-opacity: 1; white-space: pre;">0</text></g><g class="ytick"><text text-anchor="end" x="79" y="4.199999999999999" transform="translate(0,562.1800000000001)" style="font-family: 'Open Sans', verdana, arial, sans-serif; font-size: 12px; fill: rgb(68, 68, 68); fill-opacity: 1; white-space: pre;">5</text></g><g class="ytick"><text text-anchor="end" x="79" y="4.199999999999999" transform="translate(0,435.36)" style="font-family: 'Open Sans', verdana, arial, sans-serif; font-size: 12px; fill: rgb(68, 68, 68); fill-opacity: 1; white-space: pre;">10</text></g><g class="ytick"><text text-anchor="end" x="79" y="4.199999999999999" transform="translate(0,308.55)" style="font-family: 'Open Sans', verdana, arial, sans-serif; font-size: 12px; fill: rgb(68, 68, 68); fill-opacity: 1; white-space: pre;">15</text></g><g class="ytick"><text text-anchor="end" x="79" y="4.199999999999999" transform="translate(0,181.73000000000002)" style="font-family: 'Open Sans', verdana, arial, sans-serif; font-size: 12px; fill: rgb(68, 68, 68); fill-opacity: 1; white-space: pre;">20</text></g></g><g class="overaxes-above"/></g></g><g class="polarlayer"/><g class="ternarylayer"/><g class="geolayer"/><g class="pielayer"/><g class="glimages"/><defs id="topdefs-c47ecb"><g class="clips"/><clipPath id="legendc47ecb"><rect width="173" height="48" x="0" y="0"/></clipPath></defs><g class="layer-above"><g class="imagelayer"/><g class="shapelayer"/></g><g class="infolayer"><g class="legend" pointer-events="all" transform="translate(1094.9, 100)"><rect class="bg" shape-rendering="crispEdges" width="173" height="48" x="0" y="0" style="stroke: rgb(68, 68, 68); stroke-opacity: 1; fill: rgb(255, 255, 255); fill-opacity: 1; stroke-width: 0px;"/><g class="scrollbox" transform="translate(0, 0)" clip-path="url(#legendc47ecb)"><g class="groups"><g class="traces" transform="translate(0, 14.5)" style="opacity: 1;"><g class="layers" style="opacity: 1;"><g class="legendfill"/><g class="legendlines"><path class="js-line" d="M5,0h30" style="fill: none; stroke: rgb(31, 119, 180); stroke-opacity: 1; stroke-width: 2px;"/></g><g class="legendsymbols"><g class="legendpoints"/></g></g><text class="legendtext user-select-none" text-anchor="start" x="40" y="4.680000000000001" style="font-family: 'Open Sans', verdana, arial, sans-serif; font-size: 12px; fill: rgb(68, 68, 68); fill-opacity: 1; white-space: pre;">All Commits</text><rect class="legendtoggle" pointer-events="all" x="0" y="-9.5" width="213" height="19" style="cursor: pointer; fill: rgb(0, 0, 0); fill-opacity: 0;"/></g><g class="traces" transform="translate(0, 33.5)" style="opacity: 1;"><g class="layers" style="opacity: 1;"><g class="legendfill"/><g class="legendlines"><path class="js-line" d="M5,0h30" style="fill: none; stroke: rgb(255, 127, 14); stroke-opacity: 1; stroke-width: 2px;"/></g><g class="legendsymbols"><g class="legendpoints"/></g></g><text class="legendtext user-select-none" text-anchor="start" x="40" y="4.680000000000001" style="font-family: 'Open Sans', verdana, arial, sans-serif; font-size: 12px; fill: rgb(68, 68, 68); fill-opacity: 1; white-space: pre;">Signed-Off-By Commits</text><rect class="legendtoggle" pointer-events="all" x="0" y="-9.5" width="213" height="19" style="cursor: pointer; fill: rgb(0, 0, 0); fill-opacity: 0;"/></g></g></g><rect class="scrollbar" rx="20" ry="3" width="0" height="0" x="0" y="0" style="fill: rgb(128, 139, 164); fill-opacity: 1;"/></g><g class="g-gtitle"><text class="gtitle" x="640" y="50" text-anchor="middle" style="font-family: 'Open Sans', verdana, arial, sans-serif; font-size: 17px; fill: rgb(68, 68, 68); opacity: 1; font-weight: normal; white-space: pre;">Pair programming evolution during project - TropicalHazards-BI</text></g><g class="g-xtitle"><text class="xtitle" x="577.5" y="772" text-anchor="middle" style="font-family: 'Open Sans', verdana, arial, sans-serif; font-size: 14px; fill: rgb(68, 68, 68); opacity: 1; font-weight: normal; white-space: pre;">Date of commit</text></g><g class="g-ytitle"><text class="ytitle" transform="rotate(-90,42,410)" x="42" y="410" text-anchor="middle" style="font-family: 'Open Sans', verdana, arial, sans-serif; font-size: 14px; fill: rgb(68, 68, 68); opacity: 1; font-weight: normal; white-space: pre;">Amount of commits</text></g></g></svg>